<?xml version="1.0" standalone="no"?>
<!DOCTYPE svg PUBLIC "-//W3C//DTD SVG 20010904//EN"
 "http://www.w3.org/TR/2001/REC-SVG-20010904/DTD/svg10.dtd">
<svg version="1.0" xmlns="http://www.w3.org/2000/svg"
 width="512.000000pt" height="512.000000pt" viewBox="0 0 512.000000 512.000000"
 preserveAspectRatio="xMidYMid meet">

<g transform="translate(0.000000,512.000000) scale(0.100000,-0.100000)"
fill="#000000" stroke="none">
<path d="M2450 4916 c-69 -19 -128 -53 -182 -104 -176 -164 -183 -431 -17
-607 27 -29 65 -60 84 -71 l35 -19 0 -137 0 -137 -462 -3 c-449 -3 -464 -4
-509 -24 -99 -46 -160 -127 -181 -244 l-12 -60 -136 0 c-120 0 -139 -2 -153
-18 -15 -17 -17 -67 -17 -520 l0 -501 26 -20 c24 -19 40 -21 155 -21 l128 0 6
-47 c15 -104 78 -193 169 -241 l51 -27 288 -3 287 -3 0 -104 0 -104 -432 -3
-433 -3 -63 -29 c-67 -31 -117 -79 -154 -148 l-23 -43 -3 -722 c-2 -714 -2
-723 18 -743 20 -20 27 -20 1640 -20 1613 0 1620 0 1640 20 20 20 20 29 18
743 l-3 722 -23 43 c-53 99 -130 155 -239 172 -32 6 -235 10 -450 10 l-393 0
0 104 0 105 288 3 287 3 51 27 c92 49 149 132 170 251 l6 37 128 0 c114 0 130
2 154 21 l26 20 0 503 c0 475 -1 504 -18 519 -15 14 -42 17 -154 17 l-134 0
-12 60 c-21 113 -77 191 -170 237 l-57 28 -462 3 -463 3 0 137 0 137 35 19
c19 11 58 43 86 73 156 165 156 421 0 586 -109 115 -275 163 -421 123z m201
-142 c74 -22 161 -109 183 -185 34 -114 11 -205 -73 -290 -85 -85 -176 -107
-291 -73 -75 22 -162 109 -184 184 -28 95 -17 172 36 250 40 59 80 90 142 112
64 22 117 22 187 2z m-41 -819 l0 -115 -50 0 -50 0 0 115 0 115 50 0 50 0 0
-115z m1053 -269 c42 -17 83 -66 97 -114 14 -50 14 -1144 0 -1194 -14 -48 -55
-97 -97 -114 -27 -12 -221 -14 -1102 -14 -733 0 -1079 3 -1098 11 -40 15 -73
48 -94 94 -17 37 -19 77 -19 610 0 362 4 584 10 607 13 47 55 97 95 114 45 20
2161 20 2208 0z m-2453 -716 l0 -400 -85 0 -85 0 0 400 0 400 85 0 85 0 0
-400z m2870 0 l0 -400 -85 0 -85 0 0 400 0 400 85 0 85 0 0 -400z m-1110 -965
l0 -105 -410 0 -410 0 0 105 0 105 410 0 410 0 0 -105z m974 -255 c45 -10 81
-34 110 -74 21 -27 21 -39 24 -687 l2 -659 -275 0 -275 0 0 335 0 336 -25 24
-24 25 -921 0 -921 0 -24 -25 -25 -24 0 -336 0 -335 -275 0 -275 0 2 659 c3
648 3 660 24 687 28 39 66 65 105 74 48 11 2725 12 2773 0z m-554 -1130 l0
-290 -830 0 -830 0 0 290 0 290 830 0 830 0 0 -290z"/>
<path d="M1797 3426 c-175 -65 -254 -263 -172 -431 109 -225 441 -222 552 3
38 78 40 193 4 266 -30 60 -86 118 -143 147 -54 28 -184 36 -241 15z m206
-159 c126 -96 55 -302 -104 -300 -120 2 -198 115 -155 227 29 76 83 109 168
103 42 -2 65 -10 91 -30z"/>
<path d="M3117 3426 c-175 -65 -254 -263 -172 -431 109 -225 441 -222 552 3
38 78 40 193 4 266 -30 60 -86 118 -143 147 -54 28 -184 36 -241 15z m202
-156 c39 -27 71 -90 71 -140 0 -41 -34 -105 -71 -132 -68 -50 -160 -41 -221
23 -76 80 -56 208 42 261 48 26 134 21 179 -12z"/>
<path d="M2097 2572 c-24 -26 -21 -75 4 -98 20 -18 42 -19 459 -19 417 0 439
1 459 19 26 24 28 77 3 99 -17 15 -64 17 -464 17 -418 0 -446 -1 -461 -18z"/>
<path d="M1286 1648 c-155 -33 -197 -237 -70 -335 29 -21 50 -28 99 -31 81 -5
135 22 173 87 84 143 -40 313 -202 279z m85 -159 c17 -33 -3 -69 -39 -69 -33
0 -52 16 -52 45 0 29 19 45 52 45 18 0 31 -7 39 -21z"/>
<path d="M3693 1625 c-47 -28 -93 -108 -93 -160 0 -54 47 -132 96 -161 38 -23
54 -26 108 -22 50 3 71 10 100 31 101 77 101 227 0 304 -30 22 -49 28 -103 31
-57 2 -72 -1 -108 -23z m135 -127 c7 -7 12 -21 12 -33 0 -29 -19 -45 -52 -45
-36 0 -56 36 -39 69 13 23 59 29 79 9z"/>
</g>
</svg>
